<mxfile host="app.diagrams.net" modified="2024-07-20T02:00:21.699Z" agent="Mozilla/5.0 (Macintosh; Intel Mac OS X 10_15_7) AppleWebKit/537.36 (KHTML, like Gecko) Chrome/126.0.0.0 Safari/537.36" etag="wfh2snloavNT1CXTKrCs" version="24.7.2" type="device" pages="2">
  <diagram name="第 1 页" id="uX3-kILDGu8jehDWKvYH">
    <mxGraphModel dx="759" dy="442" grid="1" gridSize="10" guides="1" tooltips="1" connect="1" arrows="1" fold="1" page="1" pageScale="1" pageWidth="827" pageHeight="1169" math="0" shadow="0">
      <root>
        <mxCell id="0" />
        <mxCell id="1" parent="0" />
        <mxCell id="qTZQ7nIaKaI3bZG2hTC1-1" value="" style="rounded=0;whiteSpace=wrap;html=1;fillColor=#f5f5f5;fontColor=#333333;strokeColor=#666666;" vertex="1" parent="1">
          <mxGeometry x="110" y="102" width="540" height="330" as="geometry" />
        </mxCell>
        <mxCell id="qTZQ7nIaKaI3bZG2hTC1-2" value="&lt;font style=&quot;font-size: 14px;&quot;&gt;Java Virtual Machine Runtime Data Areas&lt;/font&gt;" style="text;html=1;align=center;verticalAlign=middle;whiteSpace=wrap;rounded=0;" vertex="1" parent="1">
          <mxGeometry x="232.5" y="119" width="305" height="30" as="geometry" />
        </mxCell>
        <mxCell id="qTZQ7nIaKaI3bZG2hTC1-3" value="Method Area" style="rounded=0;whiteSpace=wrap;html=1;fillColor=#d5e8d4;strokeColor=#82b366;" vertex="1" parent="1">
          <mxGeometry x="140" y="180" width="120" height="60" as="geometry" />
        </mxCell>
        <mxCell id="qTZQ7nIaKaI3bZG2hTC1-4" value="Heap" style="rounded=0;whiteSpace=wrap;html=1;fillColor=#d5e8d4;strokeColor=#82b366;" vertex="1" parent="1">
          <mxGeometry x="140" y="270" width="120" height="60" as="geometry" />
        </mxCell>
        <mxCell id="qTZQ7nIaKaI3bZG2hTC1-5" value="Virtual Machine Stack" style="rounded=0;whiteSpace=wrap;html=1;fillColor=#f8cecc;strokeColor=#b85450;" vertex="1" parent="1">
          <mxGeometry x="320" y="180" width="140" height="60" as="geometry" />
        </mxCell>
        <mxCell id="qTZQ7nIaKaI3bZG2hTC1-6" value="Native Method Stack" style="rounded=0;whiteSpace=wrap;html=1;fillColor=#f8cecc;strokeColor=#b85450;" vertex="1" parent="1">
          <mxGeometry x="480" y="180" width="140" height="60" as="geometry" />
        </mxCell>
        <mxCell id="qTZQ7nIaKaI3bZG2hTC1-7" value="Program Counter Register" style="rounded=0;whiteSpace=wrap;html=1;fillColor=#f8cecc;strokeColor=#b85450;" vertex="1" parent="1">
          <mxGeometry x="320" y="270" width="300" height="60" as="geometry" />
        </mxCell>
        <mxCell id="qTZQ7nIaKaI3bZG2hTC1-8" value="" style="rounded=0;whiteSpace=wrap;html=1;fillColor=#f8cecc;strokeColor=#b85450;" vertex="1" parent="1">
          <mxGeometry x="140" y="400" width="20" height="10" as="geometry" />
        </mxCell>
        <mxCell id="qTZQ7nIaKaI3bZG2hTC1-10" value="" style="rounded=0;whiteSpace=wrap;html=1;fillColor=#d5e8d4;strokeColor=#82b366;" vertex="1" parent="1">
          <mxGeometry x="140" y="380" width="20" height="10" as="geometry" />
        </mxCell>
        <mxCell id="qTZQ7nIaKaI3bZG2hTC1-11" value="thread shared area" style="text;html=1;align=center;verticalAlign=middle;whiteSpace=wrap;rounded=0;" vertex="1" parent="1">
          <mxGeometry x="160" y="370" width="130" height="30" as="geometry" />
        </mxCell>
        <mxCell id="qTZQ7nIaKaI3bZG2hTC1-12" value="thread private area" style="text;html=1;align=center;verticalAlign=middle;whiteSpace=wrap;rounded=0;" vertex="1" parent="1">
          <mxGeometry x="160" y="390" width="130" height="30" as="geometry" />
        </mxCell>
      </root>
    </mxGraphModel>
  </diagram>
  <diagram id="E4xoD3eCKtAQEpQIOQh1" name="第 2 页">
    <mxGraphModel dx="759" dy="442" grid="1" gridSize="10" guides="1" tooltips="1" connect="1" arrows="1" fold="1" page="1" pageScale="1" pageWidth="827" pageHeight="1169" math="0" shadow="0">
      <root>
        <mxCell id="0" />
        <mxCell id="1" parent="0" />
        <mxCell id="HUIBFT-JmecJFC2ZhSBZ-1" value="" style="rounded=0;whiteSpace=wrap;html=1;fillColor=#f5f5f5;fontColor=#333333;strokeColor=#666666;" vertex="1" parent="1">
          <mxGeometry x="116" y="101" width="530" height="318" as="geometry" />
        </mxCell>
        <mxCell id="HUIBFT-JmecJFC2ZhSBZ-2" value="&lt;font style=&quot;font-size: 18px;&quot;&gt;Heap&lt;/font&gt;" style="text;html=1;align=center;verticalAlign=middle;whiteSpace=wrap;rounded=0;" vertex="1" parent="1">
          <mxGeometry x="232.5" y="130" width="305" height="30" as="geometry" />
        </mxCell>
        <mxCell id="HUIBFT-JmecJFC2ZhSBZ-3" value="" style="rounded=0;whiteSpace=wrap;html=1;fillColor=#dae8fc;strokeColor=#6c8ebf;" vertex="1" parent="1">
          <mxGeometry x="140" y="180" width="120" height="190" as="geometry" />
        </mxCell>
        <mxCell id="HUIBFT-JmecJFC2ZhSBZ-7" value="&lt;font style=&quot;font-size: 14px;&quot;&gt;Old Generation&lt;/font&gt;" style="rounded=0;whiteSpace=wrap;html=1;fillColor=#f8cecc;strokeColor=#b85450;" vertex="1" parent="1">
          <mxGeometry x="320" y="180" width="300" height="190" as="geometry" />
        </mxCell>
        <mxCell id="HUIBFT-JmecJFC2ZhSBZ-12" value="&lt;font style=&quot;font-size: 14px;&quot;&gt;Young Generation&lt;/font&gt;" style="text;html=1;align=center;verticalAlign=middle;whiteSpace=wrap;rounded=0;" vertex="1" parent="1">
          <mxGeometry x="140" y="180" width="120" height="30" as="geometry" />
        </mxCell>
        <mxCell id="UbTwM8Zov4Zy-sxIkoDW-1" value="Eden" style="rounded=0;whiteSpace=wrap;html=1;fillColor=#d5e8d4;strokeColor=#82b366;" vertex="1" parent="1">
          <mxGeometry x="150" y="210" width="100" height="50" as="geometry" />
        </mxCell>
        <mxCell id="UbTwM8Zov4Zy-sxIkoDW-2" value="" style="rounded=0;whiteSpace=wrap;html=1;fillColor=#e1d5e7;strokeColor=#9673a6;" vertex="1" parent="1">
          <mxGeometry x="150" y="270" width="100" height="90" as="geometry" />
        </mxCell>
        <mxCell id="UbTwM8Zov4Zy-sxIkoDW-3" value="" style="endArrow=none;html=1;rounded=0;exitX=0;exitY=0.5;exitDx=0;exitDy=0;entryX=1;entryY=0.5;entryDx=0;entryDy=0;" edge="1" parent="1" source="UbTwM8Zov4Zy-sxIkoDW-2" target="UbTwM8Zov4Zy-sxIkoDW-2">
          <mxGeometry width="50" height="50" relative="1" as="geometry">
            <mxPoint x="370" y="270" as="sourcePoint" />
            <mxPoint x="420" y="220" as="targetPoint" />
          </mxGeometry>
        </mxCell>
        <mxCell id="UbTwM8Zov4Zy-sxIkoDW-4" value="Survivor From" style="text;html=1;align=center;verticalAlign=middle;whiteSpace=wrap;rounded=0;" vertex="1" parent="1">
          <mxGeometry x="160" y="278" width="80" height="30" as="geometry" />
        </mxCell>
        <mxCell id="UbTwM8Zov4Zy-sxIkoDW-5" value="Survivor To" style="text;html=1;align=center;verticalAlign=middle;whiteSpace=wrap;rounded=0;" vertex="1" parent="1">
          <mxGeometry x="160" y="323" width="80" height="30" as="geometry" />
        </mxCell>
      </root>
    </mxGraphModel>
  </diagram>
</mxfile>
